<?xml version="1.0" encoding="UTF-8"?><svg id="Layer_1" xmlns="http://www.w3.org/2000/svg" viewBox="0 0 75 100"><path d="M52.96,24.69c.13-.31.24-.8.33-1.45s.14-1.23.14-1.73c0-.94-.15-1.9-.47-2.9-.31-1-.89-1.9-1.73-2.71s-1.97-1.47-3.37-1.97c-1.41-.5-3.23-.75-5.48-.75-1.81,0-3.49.36-5.05,1.08-1.56.72-3.03,1.58-4.4,2.57-1.56,1.12-3.32,2.78-5.29,4.96-1.97,2.18-3.82,4.63-5.57,7.34s-3.2,5.58-4.35,8.61c-1.16,3.03-1.73,5.97-1.73,8.84,0,1.56.28,2.84.84,3.84s1.29,1.78,2.2,2.34c.9.56,1.95.95,3.13,1.17,1.18.22,2.4.33,3.65.33,5.24,0,10.01-1.39,14.32-4.16,4.31-2.77,8.39-6.81,12.26-12.12.19-.25.34-.37.47-.37.25,0,.37.44.37,1.31,0,.5-.08.92-.23,1.26-.16.34-.33.67-.52.98-2.87,4.3-6.66,7.69-11.37,10.15-4.71,2.47-9.87,3.7-15.49,3.7-1.81,0-3.54-.17-5.19-.51-1.65-.34-3.12-.94-4.4-1.78-1.28-.84-2.29-1.97-3.04-3.37-.75-1.4-1.12-3.17-1.12-5.29,0-2.37.45-4.8,1.36-7.3.9-2.49,2.07-4.9,3.51-7.2,1.43-2.31,3.04-4.46,4.82-6.46s3.57-3.68,5.38-5.05c2.25-1.75,4.74-3.13,7.49-4.16,2.74-1.03,5.61-1.54,8.61-1.54,2.25,0,4.54.23,6.88.7s4.51,1.3,6.51,2.48c.5.25.75.62.75,1.12-.44.75-1,1.92-1.69,3.51s-1.25,3.01-1.68,4.26l-.84.28h-.01Z" fill="#5f4325" stroke-width="0"/><path d="M32.27,69.94c2.69-2.69,5.44-5.54,8.23-8.54s5.45-5.93,7.96-8.8c2.52-2.87,4.75-5.55,6.71-8.04,1.95-2.49,3.44-4.55,4.46-6.17.81-1.22,1.22-2.24,1.22-3.05,0-.15-.03-.3-.08-.46-.05-.15-.08-.28-.08-.38,0-.2.05-.3.15-.3.15,0,.28.08.38.23.25.26.56.64.91,1.14s.53.91.53,1.22c0,.36-.08.74-.23,1.14-.15.41-.48.97-.99,1.68-.51.71-1.22,1.61-2.14,2.71s-2.16,2.5-3.73,4.23c-1.58,1.73-3.51,3.82-5.79,6.29s-5.03,5.4-8.23,8.8c-.76.76-1.65,1.67-2.67,2.71s-2.02,2.12-3.01,3.24-1.91,2.2-2.74,3.24c-.84,1.04-1.44,1.92-1.79,2.63-.36.66-.87.99-1.52.99-.97.05-1.69.22-2.17.5s-.88.42-1.18.42c-.2,0-.3-.1-.3-.3,0-.15.1-.43.3-.84.2-.41.41-.89.61-1.45.66-1.98,1.27-4.18,1.83-6.59s1.03-4.74,1.41-6.98.69-4.23.91-5.98c.23-1.75.34-2.96.34-3.62,0-.92-.05-1.82-.15-2.71s-.34-1.68-.73-2.36c-.38-.68-.94-1.24-1.68-1.68-.74-.43-1.74-.65-3.01-.65-1.02,0-2.15.19-3.39.57-1.25.38-2.22.93-2.93,1.64-.41.41-.68.48-.84.23-.15-.25-.05-.51.3-.76,1.47-1.02,3.23-1.85,5.26-2.52,2.03-.66,3.94-.99,5.72-.99,1.88,0,3.16.52,3.85,1.56s1.03,2.38,1.03,4c0,1.73-.17,3.71-.5,5.95s-.71,4.49-1.14,6.75-.81,4.37-1.14,6.32c-.33,1.96-.5,3.55-.5,4.76,0,.26.05.38.15.38.15,0,.28-.05.38-.15h.02Z" fill="#5f4325" stroke-width="0"/><path d="M42.79,55.09c-.03-.68.69-1.17,1.23-1.54.35-.24.83-.5,2.3-.94.69-.21,1.29-.39,2.29-.59.87-.17,1.98-.34,3.33-.49,1.35-.15,2.99-.27,4.93-.36s4.28-.13,7.02-.13c.17.04.26.15.26.33s-.09.26-.26.26c-.26-.04-.5-.06-.72-.06h-.46c-.35,0-.63.03-.85.1-.22.06-.44.23-.65.49-.91,1.18-1.89,2.73-2.94,4.67s-2.07,3.84-3.07,5.72c-1,1.83-2,3.6-3.01,5.32-1,1.72-2.02,3.41-3.07,5.06-.7,1.13-1.54,2.34-2.52,3.63-.98,1.28-1.91,2.34-2.78,3.17-.96.92-1.98,1.82-3.07,2.71s-2.28,1.69-3.56,2.39c-1.29.7-2.67,1.26-4.15,1.7-1.48.43-3.14.65-4.97.65-1.96,0-3.64-.28-5.03-.85-.22-.09-.38-.19-.49-.3s-.14-.31-.1-.62c0-.31.01-.73.03-1.27.02-.55.06-1.12.1-1.73l.46-.13c.17,1.13.73,2.1,1.67,2.91.94.81,2.45,1.21,4.54,1.21,1.83,0,3.52-.31,5.06-.95s3.17-1.8,4.87-3.5c1.52-1.52,3.06-3.41,4.6-5.65,1.55-2.24,3.15-4.76,4.8-7.55.74-1.26,1.52-2.62,2.35-4.08.83-1.46,1.63-2.93,2.42-4.41.78-1.48,1.52-2.91,2.22-4.28s1.28-2.58,1.77-3.63c.04-.09.06-.22.06-.39s-.13-.26-.39-.26c-.91,0-1.89.05-2.94.16s-2.09.27-3.14.49c-1.04.22-2.05.48-3.01.78-1.36.43-2.04.67-2.55,1.05-1.17.88-1.43,1.93-1.99,1.83-.35-.06-.6-.54-.62-.92h.03Z" fill="#5f4325" stroke-width="0"/><rect x="2.8" y="1.21" width="67.64" height="94.88" fill="none" stroke="#5f4325" stroke-miterlimit="10" stroke-width=".25"/><rect x="5.56" y="3.6" width="67.64" height="94.88" fill="none" stroke="#5f4325" stroke-miterlimit="10" stroke-width=".25"/></svg>