<svg xmlns="http://www.w3.org/2000/svg" width="256" height="256" viewBox="0 0 100 100"><rect width="100" height="100" rx="20" fill="#07213f"></rect><path fill="#fffdf3" d="M20.70 54.54L20.70 54.54L15.40 54.54L15.40 67.19L11.27 67.19L11.27 32.81L20.29 32.81Q26.26 32.81 29.70 35.90Q33.14 38.98 33.14 43.88L33.14 43.88Q33.14 48.47 29.73 51.50Q26.31 54.54 20.70 54.54ZM20.34 36.33L20.34 36.33L15.40 36.33L15.40 51.02L20.70 51.02Q24.58 51.02 26.77 49.01Q28.96 46.99 28.96 43.88L28.96 43.88Q28.96 40.41 26.72 38.37Q24.47 36.33 20.34 36.33ZM48.50 54.54L48.50 54.54L43.19 54.54L43.19 67.19L39.06 67.19L39.06 32.81L48.09 32.81Q54.05 32.81 57.50 35.90Q60.94 38.98 60.94 43.88L60.94 43.88Q60.94 48.47 57.52 51.50Q54.11 54.54 48.50 54.54ZM48.14 36.33L48.14 36.33L43.19 36.33L43.19 51.02L48.50 51.02Q52.37 51.02 54.56 49.01Q56.76 46.99 56.76 43.88L56.76 43.88Q56.76 40.41 54.51 38.37Q52.27 36.33 48.14 36.33ZM76.29 54.54L76.29 54.54L70.99 54.54L70.99 67.19L66.86 67.19L66.86 32.81L75.88 32.81Q81.85 32.81 85.29 35.90Q88.73 38.98 88.73 43.88L88.73 43.88Q88.73 48.47 85.32 51.50Q81.90 54.54 76.29 54.54ZM75.93 36.33L75.93 36.33L70.99 36.33L70.99 51.02L76.29 51.02Q80.17 51.02 82.36 49.01Q84.55 46.99 84.55 43.88L84.55 43.88Q84.55 40.41 82.31 38.37Q80.06 36.33 75.93 36.33Z"></path></svg>