<?xml version="1.0" encoding="UTF-8"?><svg id="Layer_1" xmlns="http://www.w3.org/2000/svg" xmlns:xlink="http://www.w3.org/1999/xlink" viewBox="0 0 225.22 86.09"><defs><clipPath id="clippath"><rect x="86.12" y="50.96" width="15.98" height="35.14" fill="none" stroke-width="0"/></clipPath><clipPath id="clippath-1"><path d="M70.29,47.5h2.16l26.16,31.34v-31.34h2.11v34.27h-2.16l-26.16-31.34v31.34h-2.11v-34.27Z" fill="none" stroke-width="0"/></clipPath><clipPath id="clippath-2"><rect x="52.07" width="19.84" height="40.58" fill="none" stroke-width="0"/></clipPath><clipPath id="clippath-3"><rect x="32.16" y="1.63" width="19.91" height="40.58" transform="translate(84.22 43.84) rotate(180)" fill="none" stroke-width="0"/></clipPath></defs><path d="M0,3.61h2.11v19.39L26.5,3.61h2.93l-15.89,12.72,17.47,21.55h-2.64L11.9,17.58l-9.79,7.73v12.58H0V3.61Z" fill="#5f4325" stroke-width="0"/><path d="M77.33,3.61h2.59l16.51,31.97L112.94,3.61h2.5v34.27h-2.02V6.54l-16.13,31.34h-1.82l-16.13-31.15v31.15h-2.02V3.61Z" fill="#5f4325" stroke-width="0"/><path d="M125.23,3.61h15.74c4,0,7.08.86,9.24,2.59s3.24,4.21,3.24,7.44c0,6.75-4.35,10.13-13.06,10.13h-13.06v14.11h-2.11V3.61ZM151.25,13.59c0-2.66-.9-4.67-2.71-6.05-1.81-1.38-4.42-2.06-7.85-2.06h-13.34v16.46h13.1c7.2,0,10.8-2.78,10.8-8.35Z" fill="#5f4325" stroke-width="0"/><path d="M160.89,3.61h26.06v1.87h-23.95v13.78h22.8v1.87h-22.8v14.88h24.53l-.53,1.87h-26.11V3.61Z" fill="#5f4325" stroke-width="0"/><path d="M14.93,49.37H0v-1.87h31.97v1.87h-14.93v32.4h-2.11v-32.4Z" fill="#5f4325" stroke-width="0"/><path d="M37.92,47.5h26.06v1.87h-23.95v13.78h22.8v1.87h-22.8v14.88h24.53l-.53,1.87h-26.11v-34.27Z" fill="#5f4325" stroke-width="0"/><path d="M110.35,64.73c0-3.71.74-6.92,2.21-9.62,1.47-2.7,3.56-4.79,6.26-6.26,2.7-1.47,5.86-2.21,9.48-2.21,4.1,0,7.48.94,10.15,2.81s4.5,4.62,5.5,8.23l-2.02.34c-.99-3.17-2.61-5.54-4.85-7.1-2.24-1.57-5.18-2.35-8.83-2.35-3.2,0-5.98.66-8.33,1.97-2.35,1.31-4.17,3.18-5.45,5.59-1.28,2.42-1.92,5.29-1.92,8.62s.65,6.18,1.94,8.57c1.3,2.38,3.13,4.22,5.5,5.5,2.37,1.28,5.18,1.92,8.45,1.92,3.87,0,7.02-.86,9.46-2.57,2.43-1.71,3.97-4.2,4.61-7.46h2.11c-.61,3.74-2.34,6.67-5.21,8.78-2.86,2.11-6.52,3.17-10.97,3.17-3.74,0-6.97-.72-9.67-2.16s-4.78-3.5-6.24-6.19-2.18-5.87-2.18-9.55Z" fill="#5f4325" stroke-width="0"/><path d="M152.35,47.5h26.06v1.87h-23.95v13.78h22.8v1.87h-22.8v14.88h24.53l-.53,1.87h-26.11v-34.27Z" fill="#5f4325" stroke-width="0"/><path d="M224.22,47.5v18.33c0,4.83-.98,8.46-2.94,10.89-1.96,2.43-4.7,3.65-8.2,3.65-5.77,0-9.32-3.07-10.64-9.22l-18.62,10.81v-2.83l18.16-10.47c-.11-.9-.17-2.04-.17-3.39v-15.28h-17.99v-2.49h40.4ZM213.13,77.77c2.87,0,5.06-1,6.59-3,1.53-2,2.29-5.07,2.29-9.22v-15.56h-17.99v15.39c0,8.26,3.04,12.39,9.11,12.39Z" fill="#5f4325" stroke-width="0"/><g clip-path="url(#clippath)"><path d="M70.9,50.96h2.16l26.16,31.34v-31.34h2.11v34.27h-2.16l-26.16-31.34v31.34h-2.11v-34.27Z" fill="#5f4325" stroke-width="0"/></g><g clip-path="url(#clippath-1)"><rect x="70.29" y="47.07" width="15.98" height="35.14" fill="#5f4325" stroke-width="0"/></g><g clip-path="url(#clippath-2)"><path d="M33.45,19.88c0-3.79.76-7.06,2.3-9.81,1.53-2.75,3.7-4.86,6.5-6.35,2.8-1.49,6.09-2.23,9.87-2.23s7.12.74,9.92,2.23c2.8,1.49,4.97,3.6,6.5,6.35,1.53,2.75,2.3,6.02,2.3,9.81s-.77,7.02-2.3,9.78c-1.53,2.76-3.7,4.89-6.5,6.37-2.8,1.49-6.11,2.23-9.92,2.23s-7.07-.74-9.87-2.23c-2.8-1.49-4.97-3.61-6.5-6.37-1.53-2.76-2.3-6.02-2.3-9.78ZM35.7,19.88c0,3.4.67,6.33,2,8.78,1.34,2.45,3.23,4.34,5.69,5.66,2.46,1.32,5.37,1.99,8.72,1.99s6.31-.66,8.77-1.99c2.46-1.32,4.36-3.21,5.69-5.66,1.34-2.45,2-5.38,2-8.78s-.67-6.33-2-8.78c-1.34-2.45-3.23-4.34-5.69-5.66-2.46-1.32-5.38-1.99-8.77-1.99s-6.26.66-8.72,1.99c-2.46,1.32-4.36,3.21-5.69,5.66-1.34,2.45-2,5.38-2,8.78Z" fill="#5f4325" stroke-width="0"/></g><g clip-path="url(#clippath-3)"><path d="M70.75,21.51c0-3.79-.77-7.06-2.3-9.81-1.54-2.75-3.71-4.86-6.52-6.35-2.81-1.49-6.11-2.23-9.91-2.23s-7.14.74-9.95,2.23c-2.81,1.49-4.98,3.6-6.52,6.35-1.54,2.75-2.3,6.02-2.3,9.81s.77,7.02,2.3,9.78c1.54,2.76,3.71,4.89,6.52,6.37,2.81,1.49,6.13,2.23,9.95,2.23s7.09-.74,9.91-2.23c2.81-1.49,4.99-3.61,6.52-6.37,1.54-2.76,2.3-6.02,2.3-9.78ZM68.49,21.51c0,3.4-.67,6.33-2.01,8.78-1.34,2.45-3.24,4.34-5.71,5.66-2.47,1.32-5.39,1.99-8.75,1.99s-6.33-.66-8.8-1.99c-2.47-1.32-4.37-3.21-5.71-5.66-1.34-2.45-2.01-5.38-2.01-8.78s.67-6.33,2.01-8.78c1.34-2.45,3.24-4.34,5.71-5.66,2.47-1.32,5.4-1.99,8.8-1.99s6.28.66,8.75,1.99c2.47,1.32,4.37,3.21,5.71,5.66,1.34,2.45,2.01,5.38,2.01,8.78Z" fill="#5f4325" stroke-width="0"/></g></svg>